<?xml version="1.0" encoding="UTF-8" ?>
<svg version="1.1" xmlns="http://www.w3.org/2000/svg" shape-rendering="crispEdges" viewBox="0 0 16 16">
<rect x="1" y="1" width="14" height="1" fill="#FFFFFF" />
<rect x="1" y="2" width="1" height="13" fill="#FFFFFF" />
<rect x="2" y="2" width="2" height="1" fill="#000000" />
<rect x="4" y="2" width="8" height="1" fill="#9A6B3B" />
<rect x="12" y="2" width="2" height="1" fill="#000000" />
<rect x="14" y="2" width="1" height="13" fill="#FFFFFF" />
<rect x="2" y="3" width="1" height="11" fill="#000000" />
<rect x="3" y="3" width="1" height="1" fill="#E0D0A7" />
<rect x="4" y="3" width="8" height="1" fill="#FFFFFF" />
<rect x="12" y="3" width="1" height="1" fill="#E0D0A7" />
<rect x="13" y="3" width="1" height="11" fill="#000000" />
<rect x="3" y="4" width="1" height="7" fill="#FFFFFF" />
<rect x="4" y="4" width="8" height="1" fill="#E0D0A7" />
<rect x="12" y="4" width="1" height="7" fill="#FFFFFF" />
<rect x="4" y="5" width="2" height="1" fill="#9A6B3B" />
<rect x="6" y="5" width="6" height="1" fill="#E0D0A7" />
<rect x="4" y="6" width="1" height="3" fill="#E0D0A7" />
<rect x="5" y="6" width="2" height="1" fill="#005A9E" />
<rect x="7" y="6" width="5" height="1" fill="#E0D0A7" />
<rect x="5" y="7" width="1" height="1" fill="#E0D0A7" />
<rect x="6" y="7" width="2" height="1" fill="#005A9E" />
<rect x="8" y="7" width="4" height="2" fill="#E0D0A7" />
<rect x="5" y="8" width="2" height="1" fill="#005A9E" />
<rect x="7" y="8" width="1" height="3" fill="#E0D0A7" />
<rect x="4" y="9" width="2" height="1" fill="#9A6B3B" />
<rect x="6" y="9" width="1" height="2" fill="#E0D0A7" />
<rect x="8" y="9" width="1" height="1" fill="#9A6B3B" />
<rect x="9" y="9" width="2" height="1" fill="#005A9E" />
<rect x="11" y="9" width="1" height="1" fill="#9A6B3B" />
<rect x="4" y="10" width="2" height="1" fill="#E0D0A7" />
<rect x="8" y="10" width="4" height="1" fill="#E0D0A7" />
<rect x="3" y="11" width="1" height="1" fill="#E0D0A7" />
<rect x="4" y="11" width="8" height="1" fill="#9A6B3B" />
<rect x="12" y="11" width="1" height="1" fill="#E0D0A7" />
<rect x="3" y="12" width="10" height="2" fill="#000000" />
<rect x="2" y="14" width="12" height="1" fill="#FFFFFF" />
</svg>