<?xml version="1.0" encoding="UTF-8" ?>
<svg version="1.1" xmlns="http://www.w3.org/2000/svg" shape-rendering="crispEdges" viewBox="0 0 16 16">
<rect x="2" y="1" width="12" height="1" fill="#FFFFFF" />
<rect x="2" y="2" width="1" height="3" fill="#FFFFFF" />
<rect x="3" y="2" width="1" height="2" fill="#000000" />
<rect x="4" y="2" width="2" height="1" fill="#9A6B3B" />
<rect x="6" y="2" width="1" height="1" fill="#000000" />
<rect x="7" y="2" width="1" height="1" fill="#FFFFFF" />
<rect x="8" y="2" width="1" height="1" fill="#000000" />
<rect x="9" y="2" width="3" height="1" fill="#9A6B3B" />
<rect x="12" y="2" width="1" height="2" fill="#000000" />
<rect x="13" y="2" width="1" height="3" fill="#FFFFFF" />
<rect x="4" y="3" width="2" height="1" fill="#F6EE3D" />
<rect x="6" y="3" width="1" height="1" fill="#C6B124" />
<rect x="7" y="3" width="1" height="1" fill="#000000" />
<rect x="8" y="3" width="1" height="1" fill="#C6B124" />
<rect x="9" y="3" width="3" height="1" fill="#F6EE3D" />
<rect x="1" y="4" width="1" height="11" fill="#FFFFFF" />
<rect x="3" y="4" width="1" height="1" fill="#FFFFFF" />
<rect x="4" y="4" width="1" height="1" fill="#9A6B3B" />
<rect x="5" y="4" width="2" height="1" fill="#000000" />
<rect x="7" y="4" width="1" height="1" fill="#9A6B3B" />
<rect x="8" y="4" width="3" height="1" fill="#000000" />
<rect x="11" y="4" width="1" height="1" fill="#9A6B3B" />
<rect x="12" y="4" width="1" height="1" fill="#FFFFFF" />
<rect x="14" y="4" width="1" height="11" fill="#FFFFFF" />
<rect x="2" y="5" width="2" height="1" fill="#000000" />
<rect x="4" y="5" width="8" height="1" fill="#7B1019" />
<rect x="12" y="5" width="2" height="1" fill="#000000" />
<rect x="2" y="6" width="1" height="8" fill="#000000" />
<rect x="3" y="6" width="1" height="1" fill="#B03A30" />
<rect x="4" y="6" width="3" height="1" fill="#D76D49" />
<rect x="7" y="6" width="2" height="1" fill="#FFFFFF" />
<rect x="9" y="6" width="3" height="1" fill="#D76D49" />
<rect x="12" y="6" width="1" height="1" fill="#B03A30" />
<rect x="13" y="6" width="1" height="8" fill="#000000" />
<rect x="3" y="7" width="1" height="4" fill="#D76D49" />
<rect x="4" y="7" width="3" height="4" fill="#B03A30" />
<rect x="7" y="7" width="2" height="4" fill="#E0D0A7" />
<rect x="9" y="7" width="3" height="4" fill="#B03A30" />
<rect x="12" y="7" width="1" height="4" fill="#D76D49" />
<rect x="3" y="11" width="1" height="1" fill="#B03A30" />
<rect x="4" y="11" width="3" height="1" fill="#7B1019" />
<rect x="7" y="11" width="2" height="1" fill="#9A6B3B" />
<rect x="9" y="11" width="3" height="1" fill="#7B1019" />
<rect x="12" y="11" width="1" height="1" fill="#B03A30" />
<rect x="3" y="12" width="10" height="2" fill="#000000" />
<rect x="2" y="14" width="12" height="1" fill="#FFFFFF" />
</svg>