<?xml version="1.0" encoding="UTF-8" ?>
<svg version="1.1" viewBox="0 0 16 16" xmlns="http://www.w3.org/2000/svg" shape-rendering="crispEdges">
<rect x="1" y="1" width="13" height="1" fill="#FFFFFF" />
<rect x="1" y="2" width="1" height="2" fill="#FFFFFF" />
<rect x="2" y="2" width="11" height="1" fill="#000000" />
<rect x="13" y="2" width="1" height="1" fill="#E0D0A7" />
<rect x="14" y="2" width="1" height="6" fill="#FFFFFF" />
<rect x="2" y="3" width="11" height="1" fill="#FFFFFF" />
<rect x="13" y="3" width="1" height="4" fill="#000000" />
<rect x="2" y="4" width="1" height="1" fill="#FFFFFF" />
<rect x="3" y="4" width="1" height="1" fill="#000000" />
<rect x="4" y="4" width="8" height="1" fill="#B03A30" />
<rect x="12" y="4" width="1" height="1" fill="#000000" />
<rect x="1" y="5" width="1" height="9" fill="#FFFFFF" />
<rect x="2" y="5" width="1" height="8" fill="#000000" />
<rect x="3" y="5" width="1" height="1" fill="#D76D49" />
<rect x="4" y="5" width="7" height="1" fill="#FFA560" />
<rect x="11" y="5" width="1" height="1" fill="#000000" />
<rect x="12" y="5" width="1" height="1" fill="#D76D49" />
<rect x="3" y="6" width="1" height="5" fill="#FFA560" />
<rect x="4" y="6" width="8" height="1" fill="#D76D49" />
<rect x="12" y="6" width="1" height="1" fill="#FFA560" />
<rect x="4" y="7" width="2" height="4" fill="#D76D49" />
<rect x="6" y="7" width="1" height="1" fill="#B03A30" />
<rect x="7" y="7" width="6" height="1" fill="#000000" />
<rect x="13" y="7" width="1" height="1" fill="#E0D0A7" />
<rect x="6" y="8" width="1" height="2" fill="#000000" />
<rect x="7" y="8" width="7" height="1" fill="#FFFFFF" />
<rect x="7" y="9" width="1" height="1" fill="#E0D0A7" />
<rect x="8" y="9" width="6" height="1" fill="#000000" />
<rect x="14" y="9" width="1" height="5" fill="#FFFFFF" />
<rect x="6" y="10" width="2" height="1" fill="#D76D49" />
<rect x="8" y="10" width="1" height="1" fill="#FFA560" />
<rect x="9" y="10" width="1" height="1" fill="#D76D49" />
<rect x="10" y="10" width="1" height="1" fill="#FFA560" />
<rect x="11" y="10" width="1" height="1" fill="#D76D49" />
<rect x="12" y="10" width="1" height="1" fill="#FFA560" />
<rect x="13" y="10" width="1" height="3" fill="#000000" />
<rect x="3" y="11" width="1" height="1" fill="#D76D49" />
<rect x="4" y="11" width="4" height="1" fill="#B03A30" />
<rect x="8" y="11" width="1" height="1" fill="#D76D49" />
<rect x="9" y="11" width="1" height="1" fill="#B03A30" />
<rect x="10" y="11" width="1" height="1" fill="#D76D49" />
<rect x="11" y="11" width="1" height="1" fill="#B03A30" />
<rect x="12" y="11" width="1" height="1" fill="#D76D49" />
<rect x="3" y="12" width="10" height="2" fill="#000000" />
<rect x="2" y="13" width="1" height="1" fill="#E0D0A7" />
<rect x="13" y="13" width="1" height="1" fill="#E0D0A7" />
<rect x="2" y="14" width="12" height="1" fill="#FFFFFF" />
</svg>